<svg width="668" height="328" viewBox="0 0 668 328" fill="none" xmlns="http://www.w3.org/2000/svg">
<path fill-rule="evenodd" clip-rule="evenodd" d="M64 180C64 180 68.9217 222.605 78.7646 235.163C88.6079 247.721 122 254 122 254C122 254 88.6079 260.279 78.7646 272.837C68.9217 285.395 64 328 64 328C64 328 59.0783 285.395 49.2354 272.837C39.392 260.279 6 254 6 254C6 254 39.3921 247.721 49.2354 235.163C59.0783 222.605 64 180 64 180ZM277.383 142.5C277.383 171.6 253.983 195 224.883 195H157.019C158.006 255.295 203.545 304.682 262 312.1V193H277V328C224.8 328 179.5 298.3 157 254.8V328H142V180H224.883C245.583 180 262.383 163.2 262.383 142.5V139.8C250.083 155.1 231.183 165 209.883 165C172.683 165 142.383 134.7 142.383 97.5C142.383 60.2998 172.683 30 209.883 30C231.183 30 250.083 39.9004 262.383 55.2002V30H277.383V142.5ZM351.883 193C389.083 193 419.383 223.3 419.383 260.5V275.5H301.482C307.782 297.1 327.883 313 351.883 313H419.383V328H351.883C314.683 328 284.383 297.7 284.383 260.5C284.383 223.3 314.683 193 351.883 193ZM531.766 193C548.266 193 561.766 206.5 561.766 223H546.766C546.766 214.6 540.166 208 531.766 208H456.766C448.366 208 441.766 214.6 441.766 223C441.766 231.4 448.366 238 456.766 238H516.766C541.666 238 561.766 258.1 561.766 283C561.766 307.9 541.666 328 516.766 328H456.766C440.266 328 426.766 314.5 426.766 298H441.766C441.766 306.4 448.366 313 456.766 313H516.766C533.266 313 546.766 299.5 546.766 283C546.766 266.5 533.266 253 516.766 253H456.766C440.266 253 426.766 239.5 426.766 223C426.766 206.5 440.266 193 456.766 193H531.766ZM614.148 208H666.648V223H614.148V260.5C614.148 289.6 637.548 313 666.648 313V328C629.448 328 599.148 297.7 599.148 260.5V223H569.148V208H599.148V163H614.148V208ZM351.883 208C322.783 208 299.383 231.4 299.383 260.5H404.383C404.383 231.4 380.983 208 351.883 208ZM67.5 30C104.7 30 135 60.2998 135 97.5V165H120V120H15V165H0V97.5C0 60.2998 30.3 30 67.5 30ZM352.266 30C389.466 30 419.766 60.2998 419.766 97.5V112.5H301.865C308.165 134.1 328.266 150 352.266 150H419.766V165H352.266C315.066 165 284.766 134.7 284.766 97.5C284.766 60.2998 315.066 30 352.266 30ZM442.148 55.2002C454.448 39.9004 473.348 30 494.648 30C531.848 30 562.148 60.2998 562.148 97.5V165H547.148V97.5C547.148 68.3999 523.748 45 494.648 45C465.548 45 442.148 68.3999 442.148 97.5V165H427.148V30H442.148V55.2002ZM614.531 45H667.031V60H614.531V97.5C614.531 126.6 637.931 150 667.031 150V165C629.831 165 599.531 134.7 599.531 97.5V60H569.531V45H599.531V0H614.531V45ZM209.883 45C180.783 45 157.383 68.3999 157.383 97.5C157.383 126.6 180.783 150 209.883 150C238.983 150 262.383 126.6 262.383 97.5C262.383 68.3999 238.983 45 209.883 45ZM67.5 45C38.4 45 15 68.3999 15 97.5V105H120V97.5C120 68.3999 96.6 45 67.5 45ZM352.266 45C323.166 45 299.766 68.3999 299.766 97.5H404.766C404.766 68.3999 381.366 45 352.266 45Z" fill="black"/>
</svg>
